<?xml version="1.0" encoding="UTF-8"?>
<svg width="24px" height="24px" viewBox="0 0 24 24" stroke-width="1.5" fill="none" xmlns="http://www.w3.org/2000/svg" color="#000000">
  <path d="M7 12h3M14 12h3M9 10a1 1 0 100-2 1 1 0 000 2zM15 16a1 1 0 100-2 1 1 0 000 2zM12 8a1 1 0 100-2 1 1 0 000 2zM12 16a1 1 0 100-2 1 1 0 000 2z" stroke="#000000" stroke-width="1.5" stroke-linecap="round" stroke-linejoin="round"></path>
  <path d="M17 20a2 2 0 100-4 2 2 0 000 4zM7 8a2 2 0 100-4 2 2 0 000 4zM18.5 7.5c.828 0 1.5-.672 1.5-1.5s-.672-1.5-1.5-1.5-1.5.672-1.5 1.5.672 1.5 1.5 1.5zM5.5 19.5c.828 0 1.5-.672 1.5-1.5s-.672-1.5-1.5-1.5-1.5.672-1.5 1.5.672 1.5 1.5 1.5z" stroke="#000000" stroke-width="1.5" stroke-linecap="round" stroke-linejoin="round"></path>
  <path d="M16.5 15.5l-.968-2.264 2.574-.588a2 2 0 10-1.32-3.77 2 2 0 00-.962.803M6 6.5l1.435 2.028-2.1 1.9a2 2 0 102.665 2.982 2 2 0 00.5-1.166" stroke="#000000" stroke-width="1.5" stroke-linecap="round" stroke-linejoin="round"></path>
</svg>
