<?xml version="1.0" encoding="UTF-8"?>
<svg width="24px" height="24px" viewBox="0 0 24 24" stroke-width="1.5" fill="none" xmlns="http://www.w3.org/2000/svg" color="#000000">
  <path d="M15 15.8h4.2a.8.8 0 00.8-.8V5a.8.8 0 00-.8-.8H15a.8.8 0 00-.8.8v10a.8.8 0 00.8.8zM4.8 9h5.4a.8.8 0 00.8-.8V5a.8.8 0 00-.8-.8H4.8a.8.8 0 00-.8.8v3.2a.8.8 0 00.8.8zM4.8 19.8h5.4a.8.8 0 00.8-.8v-6a.8.8 0 00-.8-.8H4.8a.8.8 0 00-.8.8v6a.8.8 0 00.8.8z" stroke="#000000" stroke-width="1.5" stroke-linecap="round" stroke-linejoin="round"></path>
</svg>
